HIERARCHY
ROOT Hips
{
	OFFSET 0.000000 95.729000 0.000000
	CHANNELS 6 Xposition Yposition Zposition Yrotation Xrotation Zrotation
	JOINT RightUpLeg
	{
		OFFSET -9.625000 -1.639000 0.000000
		CHANNELS 3 Yrotation Xrotation Zrotation
		JOINT RightLeg
		{
			OFFSET 0.000000 -41.481000 0.000000
			CHANNELS 3 Yrotation Xrotation Zrotation
			JOINT RightFoot
			{
				OFFSET 0.000000 -43.120000 0.000000
				CHANNELS 3 Yrotation Xrotation Zrotation
				End Site
				{
					OFFSET 0.000000 -7.850000 17.850000
				}
			}
		}
	}
	JOINT LeftUpLeg
	{
		OFFSET 9.625000 -1.639000 0.000000
		CHANNELS 3 Yrotation Xrotation Zrotation
		JOINT LeftLeg
		{
			OFFSET 0.000000 -43.120000 0.000000
			CHANNELS 3 Yrotation Xrotation Zrotation
			JOINT LeftFoot
			{
				OFFSET 0.000000 -43.120000 0.000000
				CHANNELS 3 Yrotation Xrotation Zrotation
				End Site
				{
					OFFSET 0.000000 -7.850000 17.850000
				}
			}
		}
	}
	JOINT Spine
	{
		OFFSET 0.000000 16.395000 0.000000
		CHANNELS 3 Yrotation Xrotation Zrotation
		JOINT Spine1
		{
			OFFSET 0.000000 10.023000 0.000000
			CHANNELS 3 Yrotation Xrotation Zrotation
			JOINT Spine2
			{
				OFFSET 0.000000 10.437000 0.000000
				CHANNELS 3 Yrotation Xrotation Zrotation
				JOINT Spine3
				{
					OFFSET 0.000000 10.023000 0.000000
					CHANNELS 3 Yrotation Xrotation Zrotation
					JOINT Neck
					{
						OFFSET 0.000000 10.713000 0.000000
						CHANNELS 3 Yrotation Xrotation Zrotation
						JOINT Head
						{
							OFFSET 0.000000 9.720000 0.000000
							CHANNELS 3 Yrotation Xrotation Zrotation
							End Site
							{
								OFFSET 0.000000 16.450000 0.000000
							}
						}
					}
					JOINT RightShoulder
					{
						OFFSET -3.275000 7.142000 0.000000
						CHANNELS 3 Yrotation Xrotation Zrotation
						JOINT RightArm
						{
							OFFSET -13.100000 0.000000 0.000000
							CHANNELS 3 Yrotation Xrotation Zrotation
							JOINT RightForeArm
							{
								OFFSET -27.250000 0.000000 0.000000
								CHANNELS 3 Yrotation Xrotation Zrotation
								JOINT RightHand
								{
									OFFSET -26.750000 0.000000 0.000000
									CHANNELS 3 Yrotation Xrotation Zrotation
									End Site
									{
										OFFSET -3.479000 0.532000 0.778000
									}
								}
							}
						}
					}
					JOINT LeftShoulder
					{
						OFFSET 3.275000 7.142000 0.000000
						CHANNELS 3 Yrotation Xrotation Zrotation
						JOINT LeftArm
						{
							OFFSET 13.100000 0.000000 0.000000
							CHANNELS 3 Yrotation Xrotation Zrotation
							JOINT LeftForeArm
							{
								OFFSET 27.250000 0.000000 0.000000
								CHANNELS 3 Yrotation Xrotation Zrotation
								JOINT LeftHand
								{
									OFFSET 26.750000 0.000000 0.000000
									CHANNELS 3 Yrotation Xrotation Zrotation
									End Site
									{
										OFFSET 3.479000 0.532000 0.778000
									}
								}
							}
						}
					}
				}
			}
		}
	}
}
MOTION
Frames: 15
Frame Time: 0.010000
50.43 89.72 107.42 -154.09 25.1 -3.77 4.38 -55.53 0.02 -0.0 44.54 0.0 -3.37 -21.88 8.35 23.11 -48.13 -8.0 0.0 47.65 0.0 -0.14 -6.76 -1.05 3.39 3.98 0.38 0.86 1.01 0.07 1.44 1.68 0.13 0.31 -0.93 -0.26 0.31 -0.94 -0.26 7.05 -16.86 -5.76 -6.42 -12.91 -8.61 -17.87 -61.71 97.78 4.96 19.85 -7.15 14.49 10.98 -42.25 -3.28 1.3 -15.1 -22.05 -14.99 -44.73 -25.56 64.54 -4.91 10.66 -13.41 31.77
52.57 86.73 108.28 -153.29 28.53 -3.63 1.95 -64.73 1.95 0.0 52.7 0.0 -4.06 -23.23 9.04 23.11 -52.39 -9.18 -0.0 50.22 -0.0 -0.53 -5.81 -1.23 2.86 1.96 0.37 0.72 0.49 0.08 1.2 0.82 0.14 0.33 -0.93 -0.27 0.34 -0.93 -0.27 7.57 -16.7 -6.09 -3.9 -7.28 -10.5 -13.58 -62.62 96.29 3.4 19.44 -5.92 14.26 12.22 -43.8 -4.39 5.58 -15.9 -22.92 -12.48 -43.42 -23.08 63.26 0.48 9.15 -13.93 31.29
54.11 84.07 108.7 -152.42 30.82 -3.06 -2.17 -71.59 5.17 0.0 59.48 0.0 -3.61 -24.29 8.92 23.12 -58.07 -10.51 -0.0 55.85 -0.0 1.07 -5.97 -1.53 3.27 6.27 -0.06 0.83 1.59 -0.05 1.4 2.65 -0.07 0.26 -1.33 -0.31 0.27 -1.34 -0.31 7.56 -24.57 -7.52 -2.29 -12.22 -11.78 -11.23 -63.63 94.9 2.12 19.06 -4.25 14.23 13.13 -45.37 -6.49 -0.3 -15.52 -24.13 -13.24 -41.41 -21.93 63.35 1.49 8.2 -14.26 31.02
56.68 79.54 108.94 -151.59 32.95 -2.45 -21.02 -80.08 23.15 0.0 69.75 0.0 -1.88 -26.46 7.07 26.3 -66.52 -14.42 0.0 65.72 0.0 2.38 -4.84 -1.08 3.71 6.98 -0.59 0.94 1.77 -0.19 1.57 2.97 -0.3 0.21 -1.44 -0.33 0.22 -1.46 -0.33 7.12 -26.85 -7.96 0.11 -10.47 -12.48 -6.76 -66.39 92.02 -0.43 18.62 -2.86 13.96 14.29 -46.65 -7.87 -1.45 -15.26 -25.73 -13.75 -39.63 -20.62 63.94 2.48 7.35 -14.18 30.82
58.37 72.57 108.67 -150.17 33.53 -1.99 -99.17 -84.25 100.1 0.0 83.54 0.0 -3.75 -24.27 10.03 29.85 -72.8 -18.29 0.0 75.7 0.0 3.7 -5.47 -0.46 4.07 7.86 -0.64 1.04 2.0 -0.21 1.73 3.35 -0.33 0.16 -1.48 -0.33 0.17 -1.5 -0.33 6.34 -27.79 -7.81 2.55 -7.46 -13.94 -11.73 -70.59 98.34 -3.61 18.38 -2.7 14.45 15.09 -48.38 -9.04 -0.06 -16.39 -27.92 -16.23 -35.98 -21.45 63.94 1.97 7.69 -13.95 31.22
59.83 68.16 107.74 -149.65 32.88 -1.67 -131.78 -80.6 133.21 -180.0 87.71 -180.0 -4.9 -23.74 10.24 31.77 -76.91 -19.7 -0.0 83.39 -0.0 3.94 -6.36 -0.87 4.64 8.76 -1.05 1.18 2.24 -0.33 1.97 3.76 -0.52 0.13 -1.48 -0.29 0.14 -1.5 -0.29 5.29 -27.88 -6.8 3.79 -5.49 -13.82 -15.49 -73.41 104.37 -5.54 15.91 -3.0 15.02 15.44 -49.2 -10.03 -0.34 -15.77 -28.07 -17.84 -35.01 -23.35 63.61 0.7 8.6 -13.48 31.44
61.26 67.97 106.47 -148.61 30.75 -0.71 -125.31 -80.62 126.76 180.0 86.19 180.0 -6.11 -19.93 11.63 88.35 -87.52 -76.18 180.0 74.98 180.0 3.83 -6.87 0.2 4.62 10.25 -1.49 1.17 2.63 -0.45 1.93 4.4 -0.71 0.11 -1.48 -0.27 0.11 -1.5 -0.27 4.66 -27.82 -6.31 4.9 -7.66 -11.9 -15.89 -73.0 110.27 -7.85 13.97 -3.99 15.47 16.41 -49.49 -9.47 0.06 -16.38 -29.59 -19.05 -32.5 -26.6 63.01 -0.69 10.18 -12.49 31.97
62.53 60.9 104.94 -148.37 30.36 -0.66 -147.42 -73.88 150.4 180.0 73.49 180.0 -8.11 -20.71 13.15 -165.48 -85.41 178.61 180.0 66.96 180.0 1.64 -5.37 -0.08 4.7 9.97 -2.36 1.18 2.56 -0.66 1.92 4.31 -1.07 0.12 -1.41 -0.25 0.13 -1.43 -0.25 4.54 -26.59 -5.75 7.24 -8.6 -9.51 -18.36 -73.59 118.29 -9.84 9.71 -3.83 15.34 17.09 -49.79 -9.33 0.1 -14.96 -28.85 -20.01 -31.36 -31.36 62.96 -3.21 11.66 -11.27 32.64
62.72 55.79 103.24 -147.77 25.52 -0.43 -147.64 -73.42 151.38 180.0 64.97 180.0 -7.83 -21.51 15.06 -123.03 -83.96 136.39 -180.0 61.4 -180.0 -0.58 -4.54 -0.41 4.63 12.33 -2.28 1.16 3.17 -0.66 1.86 5.29 -1.06 0.09 -1.41 -0.25 0.1 -1.43 -0.25 4.06 -26.51 -5.74 11.45 -6.74 -10.74 -23.64 -74.91 126.57 -7.48 9.67 -4.38 14.76 18.07 -49.2 -9.25 -0.15 -14.21 -28.4 -20.6 -30.44 -34.75 64.01 -5.52 12.25 -10.1 32.18
62.98 50.24 100.97 -146.79 21.95 -0.49 -149.16 -71.28 153.92 180.0 55.97 180.0 -7.79 -22.08 16.83 -113.46 -80.51 126.57 -180.0 56.53 -180.0 -2.01 -3.46 -0.42 5.14 12.84 -2.21 1.28 3.32 -0.66 2.07 5.53 -1.04 0.02 -1.39 -0.24 0.03 -1.41 -0.24 2.65 -26.14 -5.12 14.88 -5.4 -8.96 -2.63 -76.61 109.45 0.13 11.88 -5.22 13.38 18.31 -47.71 -9.66 0.39 -12.61 -29.4 -20.59 -29.64 -36.0 65.78 -6.46 12.28 -8.62 30.89
63.77 51.58 99.55 -145.71 17.55 -0.89 -147.38 -69.92 151.52 -180.0 46.6 -180.0 -8.38 -22.53 17.05 -103.42 -77.11 118.5 -180.0 51.14 180.0 -6.28 -3.08 -0.03 4.82 15.45 -1.38 1.2 3.99 -0.46 1.95 6.58 -0.71 0.04 -1.52 -0.26 0.04 -1.54 -0.26 3.42 -28.66 -5.86 18.02 -9.15 -8.31 23.88 -74.78 86.73 10.16 22.83 -4.76 13.02 18.77 -44.02 -8.99 -2.42 -11.53 -30.53 -20.05 -29.03 -37.09 65.8 -6.97 13.21 -6.94 29.74
64.61 47.77 97.57 -144.05 13.91 -1.01 -148.09 -68.83 150.94 180.0 38.71 180.0 -7.42 -22.2 16.05 -95.9 -72.51 112.24 180.0 46.5 180.0 -10.94 -3.85 -0.15 4.1 17.66 -0.71 1.03 4.54 -0.29 1.68 7.42 -0.43 0.04 -1.56 -0.27 0.04 -1.58 -0.27 3.63 -29.54 -6.09 20.19 -11.57 -9.26 44.85 -73.26 68.0 12.55 23.09 -6.56 22.33 25.8 -37.97 -8.16 -4.85 -11.44 -31.72 -20.11 -28.07 -39.59 65.89 -10.59 14.14 -5.45 31.05
66.03 43.36 94.66 -143.01 9.21 -1.31 -143.02 -68.34 144.8 180.0 30.79 -180.0 -6.16 -21.63 13.91 -89.15 -66.24 108.56 180.0 41.84 180.0 -14.84 -2.4 1.34 6.43 15.24 -0.69 1.6 3.97 -0.33 2.63 6.58 -0.48 -0.17 -1.32 -0.16 -0.16 -1.33 -0.16 -1.64 -24.52 -2.69 19.24 -7.84 -5.61 68.39 -70.8 46.15 30.69 38.2 -5.07 7.97 12.92 -36.22 -9.89 -0.09 -10.57 -33.25 -21.87 -27.17 -43.66 66.99 -12.38 15.69 -2.5 29.05
65.99 42.61 93.39 -141.69 6.6 -1.39 -137.51 -68.9 138.78 180.0 27.72 180.0 -6.61 -19.82 12.82 -83.42 -64.98 103.18 -180.0 41.11 180.0 -15.52 -2.04 2.32 7.22 14.19 -1.18 1.79 3.72 -0.45 2.91 6.21 -0.69 -0.31 -1.21 -0.05 -0.31 -1.22 -0.05 -5.35 -21.99 0.13 20.38 -7.53 -4.62 80.46 -71.18 32.78 34.52 39.75 -5.66 17.74 17.45 -33.83 -10.12 1.65 -10.64 -34.34 -19.75 -27.02 -41.55 61.22 -8.01 16.1 4.08 28.41
65.84 44.25 93.28 -141.09 6.59 -1.32 -134.77 -71.41 135.99 180.0 29.59 180.0 -5.93 -18.39 14.27 -79.74 -67.19 99.27 -180.0 42.9 -180.0 -12.82 -2.15 3.19 7.35 13.27 -1.75 1.82 3.48 -0.59 2.93 5.86 -0.91 -0.37 -1.2 0.04 -0.37 -1.2 0.04 -7.14 -21.35 2.04 22.15 -7.89 -5.64 93.07 -69.56 17.82 43.68 44.21 -5.61 19.39 15.23 -33.33 -9.55 0.34 -9.73 -33.08 -27.41 -30.93 -46.57 63.46 -18.06 20.69 -0.49 33.95
